<svg width="1024" height="1024" viewBox="0 0 1024 1024" fill="none" xmlns="http://www.w3.org/2000/svg">
  <circle cx="512" cy="512" r="150" fill="#17201D"/>
  <circle cx="512" cy="512" r="72" fill="#C86A38"/>
  <path d="M128 512C128 392.706 299.922 296 512 296C724.078 296 896 392.706 896 512C896 631.294 724.078 728 512 728C299.922 728 128 631.294 128 512Z" stroke="#77B7A5" stroke-width="72"/>
  <path d="M512 128C631.294 128 728 299.922 728 512C728 724.078 631.294 896 512 896C392.706 896 296 724.078 296 512C296 299.922 392.706 128 512 128Z" stroke="#F0B45F" stroke-width="72"/>
  <circle cx="128" cy="512" r="74" fill="#C86A38"/>
  <circle cx="896" cy="512" r="74" fill="#77B7A5"/>
  <circle cx="512" cy="896" r="74" fill="#F0B45F"/>
</svg>
